<?xml version="1.0" encoding="UTF-8"?>
<svg version="1.1" xmlns="http://www.w3.org/2000/svg" width="1277" height="406">
<path d="M0 0 C1.08831092 -0.00170885 2.17662184 -0.0034177 3.29791188 -0.00517833 C6.9090652 -0.00844693 10.52002863 0.00248688 14.13116455 0.01345825 C16.73388667 0.01402293 19.33660912 0.01370469 21.93933105 0.01257324 C27.52456339 0.01152913 33.10974867 0.01775593 38.69496918 0.02904892 C46.77005955 0.04536558 54.84512738 0.05051821 62.92023245 0.0530249 C76.02441018 0.05739237 89.12856289 0.07067565 102.23272705 0.08963013 C114.95538204 0.10801354 127.6780302 0.12215797 140.4006958 0.13064575 C141.18610995 0.1311712 141.9715241 0.13169665 142.78073868 0.13223802 C146.72128584 0.13484826 150.66183304 0.13737564 154.60238028 0.13986182 C187.24643335 0.16056478 219.89045575 0.19576436 252.53448486 0.24050903 C252.41938851 0.83986047 252.30429216 1.4392119 252.18570805 2.0567255 C251.65854048 4.80473959 251.13275767 7.55301691 250.60699463 10.30130005 C250.42593422 11.24402016 250.24487381 12.18674026 250.05832672 13.15802765 C248.72266395 20.14744749 247.53672519 27.14200226 246.47198486 34.17800903 C245.46970067 40.64148861 244.43623065 47.05243884 242.97198486 53.42800903 C241.36964414 60.42083294 240.48841655 67.48909841 239.62408447 74.60452271 C239.0181873 79.41940278 238.09047367 83.63356179 236.53448486 88.24050903 C235.96315214 91.45495076 235.56850301 94.68945331 235.15948486 97.92800903 C234.11306853 105.74819985 232.73659065 113.40527344 231.02203369 121.10403442 C229.50891925 128.02706116 228.44535817 134.98889347 227.48565674 142.0083313 C226.63171211 148.14328179 226.63171211 148.14328179 225.53448486 149.24050903 C223.30180762 149.33885483 221.0659579 149.36515444 218.83111572 149.36508179 C218.12198973 149.36649194 217.41286373 149.36790208 216.68224907 149.36935496 C214.28792274 149.37302701 211.89365493 149.36966322 209.49932861 149.3664856 C207.78966729 149.36787951 206.08000632 149.36977827 204.37034607 149.37214661 C200.67841311 149.37665385 196.9864913 149.37849992 193.29455566 149.3786087 C187.45311656 149.37974679 181.611741 149.39257 175.77032471 149.40817261 C174.78523422 149.41074546 173.80014374 149.41331831 172.78520203 149.41596913 C170.77015936 149.42123619 168.75511673 149.42652167 166.74007416 149.43182516 C153.13556484 149.46694743 139.53113309 149.49349079 125.92657471 149.49099731 C116.75808105 149.48940719 107.58980278 149.50548412 98.42137814 149.54170394 C93.56906696 149.56014779 88.71711523 149.56952104 83.86477661 149.55722809 C79.29441307 149.54576308 74.72469157 149.55756111 70.15441322 149.58686256 C68.48114493 149.59348562 66.80781755 149.59166641 65.13457298 149.5805645 C52.47556984 149.39454592 52.47556984 149.39454592 41.53448486 155.24050903 C39.96576972 157.17047191 38.79013286 159.08079448 37.53448486 161.24050903 C36.87448486 161.24050903 36.21448486 161.24050903 35.53448486 161.24050903 C35.39784424 161.83347778 35.26120361 162.42644653 35.12042236 163.03738403 C34.53448486 165.24050903 34.53448486 165.24050903 33.15948486 168.49050903 C30.8718921 174.48711143 30.00163823 180.8498078 28.90509033 187.14675903 C28.33784125 190.35145475 27.71281651 193.54484209 27.09698486 196.74050903 C25.81275185 203.49270573 24.70212946 210.26952373 23.59698486 217.05300903 C22.28372158 225.09181013 20.78389297 233.05134945 19.03692627 241.00613403 C17.41371022 248.52284849 16.19155895 256.09519372 14.96636963 263.68533325 C14.10848516 268.95295574 13.16853116 274.16177903 11.97198486 279.36550903 C10.3447146 286.52371976 9.44460908 293.76571563 8.53619385 301.04373169 C8.36132446 302.41924194 8.36132446 302.41924194 8.18292236 303.82254028 C8.03089355 305.06354492 8.03089355 305.06354492 7.87579346 306.32962036 C7.53448486 308.24050903 7.53448486 308.24050903 6.53448486 309.24050903 C5.11769575 309.33601601 3.69617245 309.36239386 2.27616882 309.36076355 C0.89839264 309.36282555 0.89839264 309.36282555 -0.50721741 309.3649292 C-1.52285263 309.36133392 -2.53848785 309.35773865 -3.5848999 309.35403442 C-4.64818512 309.35418045 -5.71147034 309.35432648 -6.80697632 309.35447693 C-10.34031171 309.35377728 -13.87359514 309.34598246 -17.40692139 309.33816528 C-19.84929882 309.33630129 -22.29167663 309.3348773 -24.73405457 309.33387756 C-31.17685978 309.33005093 -37.61964262 309.3202194 -44.06243896 309.30917358 C-50.6310394 309.29896259 -57.19964344 309.29438061 -63.76824951 309.28933716 C-76.66734763 309.27859726 -89.56643019 309.26171007 -102.46551514 309.24050903 C-102.50655794 300.4382725 -102.50655794 300.4382725 -101.76629639 297.13894653 C-101.61152832 296.41674927 -101.45676025 295.694552 -101.29730225 294.95046997 C-101.1259375 294.17993286 -100.95457275 293.40939575 -100.77801514 292.61550903 C-98.90854453 283.77739335 -97.36155627 274.90516544 -95.90301514 265.99050903 C-94.43964265 257.0597903 -92.9249961 248.15339929 -91.20770264 239.26785278 C-90.21371878 234.00518482 -89.38812269 228.71382082 -88.52801514 223.42800903 C-87.34027698 216.15658202 -86.04270835 208.93761278 -84.46551514 201.74050903 C-82.72290731 193.7758759 -81.34482692 185.7787415 -80.04022217 177.73171997 C-78.56546099 168.68747727 -76.91312972 159.68094109 -75.21575928 150.67605591 C-73.51807703 141.64562604 -72.01006553 132.59088532 -70.53582764 123.52175903 C-68.85759008 113.22580686 -67.06716431 102.9755323 -64.96820068 92.75686646 C-63.08302949 83.51186881 -61.51043743 74.21463853 -59.92254639 64.91482544 C-58.32932743 55.59211155 -56.70450378 46.27554373 -54.90301514 36.99050903 C-54.67485107 35.80972778 -54.44668701 34.62894653 -54.21160889 33.41238403 C-53.53234207 30.52461095 -52.65339821 27.95275707 -51.46551514 25.24050903 C-50.80551514 25.24050903 -50.14551514 25.24050903 -49.46551514 25.24050903 C-49.21801514 24.53925903 -48.97051514 23.83800903 -48.71551514 23.11550903 C-47.29371276 19.84536356 -45.59305225 17.09938704 -43.46551514 14.24050903 C-42.80551514 14.24050903 -42.14551514 14.24050903 -41.46551514 14.24050903 C-41.46551514 13.58050903 -41.46551514 12.92050903 -41.46551514 12.24050903 C-40.80551514 12.24050903 -40.14551514 12.24050903 -39.46551514 12.24050903 C-39.46551514 11.58050903 -39.46551514 10.92050903 -39.46551514 10.24050903 C-37.0586885 8.92713917 -34.6424675 7.64076218 -32.21551514 6.36550903 C-31.55293701 6.00070435 -30.89035889 5.63589966 -30.20770264 5.26004028 C-20.7769351 0.3667175 -10.44630818 -0.06133182 0 0 Z " fill="#FFFFFF" transform="translate(712.4655151367188,96.75949096679688)"/>
<path d="M0 0 C-0.71741828 6.97852327 -1.70021809 13.88650523 -2.8125 20.8125 C-2.98845703 21.91126465 -3.16441406 23.0100293 -3.34570312 24.14208984 C-4.56684328 31.63949929 -5.95958313 39.08408533 -7.49487305 46.52270508 C-10.77367892 62.49501274 -13.31848935 78.6260325 -15.9296875 94.71875 C-17.74028664 105.82755983 -19.69535423 116.88342481 -21.97265625 127.90625 C-22.88844014 132.36746936 -23.72858114 136.84161066 -24.56420898 141.31835938 C-24.70265984 142.05850281 -24.84111069 142.79864624 -24.98375702 143.56121826 C-25.32282396 145.37408582 -25.66145597 147.18703472 -26 149 C-26.87722403 149.00146656 -27.75444805 149.00293312 -28.65825462 149.00444412 C-50.02557332 149.04153263 -71.39273365 149.10057455 -92.75992393 149.18390274 C-103.09304431 149.22367337 -113.42608874 149.25607592 -123.75927734 149.27099609 C-132.76808763 149.28402283 -141.77673067 149.31101364 -150.78544676 149.35461307 C-155.55334735 149.37720483 -160.32104185 149.39291205 -165.0890007 149.39188385 C-169.58214977 149.39113589 -174.07484366 149.40914113 -178.56787491 149.44116783 C-180.21168693 149.4496456 -181.85555014 149.45143125 -183.49937439 149.44580269 C-197.60999735 149.26701488 -197.60999735 149.26701488 -209.8293972 155.61529922 C-218.26987527 164.56284229 -221.1188709 175.8555131 -223.4375 187.5625 C-223.65849365 188.67004639 -223.8794873 189.77759277 -224.10717773 190.91870117 C-225.63126433 198.71784713 -226.85402249 206.52043319 -227.90820312 214.39477539 C-229.05823706 222.82327132 -230.74741442 231.11221603 -232.47509766 239.43798828 C-233.39555447 243.93067375 -234.26236768 248.4334113 -235.125 252.9375 C-235.28347412 253.75283203 -235.44194824 254.56816406 -235.60522461 255.40820312 C-236.91545455 262.25853919 -237.93714408 269.09143653 -239 276 C-240.98 286.89 -242.96 297.78 -245 309 C-281.3 309 -317.6 309 -355 309 C-354.11382093 302.79674653 -353.145543 296.61918601 -352.125 290.4375 C-351.96386719 289.44169922 -351.80273438 288.44589844 -351.63671875 287.41992188 C-350.73403284 281.95832224 -349.70933967 276.54817186 -348.5234375 271.140625 C-346.94275258 263.89989135 -345.69019664 256.62628929 -344.5 249.3125 C-344.28160684 247.98847993 -344.06293456 246.66450586 -343.84399414 245.34057617 C-342.78706744 238.92989054 -341.76409949 232.514876 -340.78540039 226.09179688 C-339.62503695 218.48958419 -338.1979217 210.99693989 -336.55273438 203.48486328 C-334.91454458 195.88409864 -333.67080422 188.23079786 -332.43212891 180.55639648 C-331.57410121 175.28837745 -330.63413945 170.0791351 -329.4375 164.875 C-327.83578707 157.83268608 -326.95228686 150.71257909 -326.08959961 143.54833984 C-325.51782378 138.98795014 -324.71395408 135.26808173 -323 131 C-322.40640388 127.64219508 -322.02715229 124.26031683 -321.625 120.875 C-320.72953862 113.84038447 -319.6770648 106.91991136 -318.125 100 C-316.26027569 91.65188451 -314.81754344 83.25304127 -313.4375 74.8125 C-311.74940589 64.51420677 -310.05603685 54.2320898 -308 44 C-307.78988281 42.87207031 -307.57976562 41.74414062 -307.36328125 40.58203125 C-304.50041883 26.46629919 -298.68358542 15.70643589 -286.69921875 7.609375 C-280.13504644 3.69557038 -273.01830941 0.88652382 -265.32793999 0.8613348 C-264.38765918 0.85586036 -263.44737837 0.85038591 -262.4786042 0.84474558 C-260.93396639 0.84327842 -260.93396639 0.84327842 -259.35812378 0.84178162 C-258.26172518 0.83684364 -257.16532658 0.83190566 -256.03570378 0.82681805 C-252.34916215 0.81141779 -248.66263797 0.80307549 -244.97607422 0.79467773 C-242.33836614 0.78510109 -239.70066223 0.77513449 -237.06295776 0.76467896 C-231.37721356 0.74292132 -225.691467 0.72477399 -220.00570297 0.70907402 C-211.78285199 0.68636372 -203.56002666 0.65822185 -195.33719744 0.62875474 C-181.99352709 0.58108496 -168.64984622 0.53782074 -155.30615234 0.49731445 C-142.34846167 0.45797059 -129.39078042 0.41654351 -116.43310547 0.37231445 C-115.2356058 0.36822804 -115.2356058 0.36822804 -114.01391421 0.36405908 C-110.0086478 0.3503787 -106.00338152 0.33665816 -101.9981153 0.32291877 C-76.92046715 0.23694062 -51.84281019 0.15417928 -26.76513672 0.07592773 C-25.49663376 0.07196424 -24.2281308 0.06800076 -22.92118835 0.06391716 C-19.41009538 0.05297041 -15.89900222 0.04208323 -12.38790894 0.03123474 C-11.35368895 0.02802591 -10.31946897 0.02481708 -9.25390899 0.02151102 C-8.31884368 0.01864432 -7.38377836 0.01577762 -6.42037773 0.01282406 C-5.60918507 0.01032837 -4.79799242 0.00783268 -3.96221817 0.00526136 C-2.64148236 0.00172003 -1.32074055 0 0 0 Z " fill="#FFFFFF" transform="translate(645,97)"/>
<path d="M0 0 C34.20914206 -0.09161776 68.41825604 -0.16207029 102.62749435 -0.20426132 C106.66906219 -0.20926396 110.71062979 -0.21444127 114.75219727 -0.21972656 C115.95906813 -0.22130043 115.95906813 -0.22130043 117.19032022 -0.22290608 C130.20651091 -0.24029654 143.22263072 -0.27182671 156.2387794 -0.30861118 C169.60122473 -0.34605849 182.96363301 -0.36824385 196.32612866 -0.37635398 C204.56706911 -0.38183391 212.80780916 -0.39912221 221.0486879 -0.43166587 C226.70492354 -0.45286059 232.36105604 -0.45918887 238.01732848 -0.45400551 C241.27750114 -0.45145137 244.53725228 -0.4574888 247.79737854 -0.4768219 C251.34084712 -0.4968012 254.88346685 -0.49190929 258.42695618 -0.48101807 C259.95472835 -0.49849512 259.95472835 -0.49849512 261.51336461 -0.51632524 C271.39202286 -0.43457747 280.0951828 2.14852497 287.34375 9.0703125 C293.44371208 16.1773438 294.40010677 23.88748431 294 33 C293.55192504 36.96138998 292.91285817 40.8819582 292.25 44.8125 C292.06953125 45.91198975 291.8890625 47.01147949 291.703125 48.14428711 C290.45656888 55.61550822 289.04200101 63.04092562 287.50317383 70.45678711 C285.93223767 78.10252187 284.68002562 85.79184933 283.43188477 93.49584961 C282.57240547 98.74567647 281.62878559 103.937944 280.4375 109.125 C278.89415801 115.94073193 278.00991011 122.81569375 277.17749023 129.74853516 C276.41850699 135.80152371 275.19016579 141.62600831 273.77148438 147.55688477 C272.40926396 153.63643998 271.47638552 159.7862712 270.5 165.9375 C269.31046717 173.40853358 268.07588909 180.83436913 266.44140625 188.22265625 C265.10553516 194.29133996 264.17972179 200.33384971 263.4375 206.5 C262.74029855 212.28478005 261.87067844 217.46866062 260 223 C259.42803725 226.1934896 259.03353593 229.40707591 258.625 232.625 C257.69532524 239.5139911 256.61633275 246.32203919 255.1875 253.125 C252.84755424 264.28858813 250.98839599 275.53190849 249.10620117 286.77978516 C248.9818721 287.51780869 248.85754303 288.25583221 248.72944641 289.01622009 C248.38905812 291.03806147 248.05160584 293.06039651 247.71435547 295.08276367 C246.9250197 299.41116165 245.95444668 303.70498993 245 308 C209.03 308 173.06 308 136 308 C136 302.89886788 136.11089686 299.77038902 137.25 295.0625 C139.00362197 287.32495473 140.29108519 279.53453552 141.55371094 271.70336914 C142.44814882 266.18751765 143.44425391 260.71200578 144.56469727 255.23779297 C145.35417134 251.17928519 145.82542008 247.08087486 146.33984375 242.98046875 C146.83599566 239.60627296 147.61530847 236.32739854 148.41015625 233.01171875 C150.1547393 225.60320812 151.34597266 218.14479106 152.5 210.625 C153.71919571 202.72775808 154.99318675 194.87185448 156.62890625 187.05078125 C158.53104701 177.71966301 160.61332305 166.09681216 155.26953125 157.54296875 C151.87057417 153.4119286 148.13109209 150.65221987 143 149 C139.6645129 148.69044523 139.6645129 148.69044523 135.98283386 148.7215271 C134.94124515 148.7128385 134.94124515 148.7128385 133.87861425 148.70397437 C131.55859576 148.68700845 129.23877662 148.68410085 126.91870117 148.68115234 C125.25295526 148.67185181 123.58721401 148.66168294 121.92147827 148.65071106 C117.40333328 148.62341116 112.88521947 148.60826166 108.36701369 148.59528303 C103.64375339 148.57965248 98.92055676 148.552862 94.19734192 148.5272522 C85.25500064 148.4804631 76.31264738 148.4437196 67.37024623 148.41057932 C57.18890617 148.37235889 47.00763005 148.3229485 36.82634389 148.27259517 C15.88427648 148.16927335 -5.05783142 148.08001373 -26 148 C-25.84692818 146.2420518 -25.6919349 144.48427083 -25.53613281 142.7265625 C-25.45002747 141.74768066 -25.36392212 140.76879883 -25.27520752 139.76025391 C-24.94624424 136.46084483 -24.39729993 133.25155316 -23.75 130 C-23.4837986 128.63162242 -23.21822445 127.26312274 -22.953125 125.89453125 C-22.80423828 125.13350098 -22.65535156 124.3724707 -22.50195312 123.58837891 C-21.47505074 118.2930389 -20.48740209 112.99032398 -19.5 107.6875 C-19.17286011 105.93167603 -19.17286011 105.93167603 -18.83911133 104.14038086 C-17.60565825 97.46076519 -16.45545829 90.77816732 -15.4375 84.0625 C-14.35200769 76.90376634 -13.00144139 69.82572997 -11.54614258 62.73364258 C-10.11677807 55.71865787 -8.87808592 48.68006245 -7.67835999 41.62261963 C-6.16738177 32.80873247 -4.52382475 24.02173373 -2.8671875 15.234375 C-2.58773068 13.74854993 -2.30835195 12.26271017 -2.02905273 10.77685547 C-1.35359923 7.18440104 -0.67709886 3.59214473 0 0 Z " fill="#FFFFFF" transform="translate(26,98)"/>
<path d="M0 0 C34.20914206 -0.09161776 68.41825604 -0.16207029 102.62749435 -0.20426132 C106.66906219 -0.20926396 110.71062979 -0.21444127 114.75219727 -0.21972656 C115.95906813 -0.22130043 115.95906813 -0.22130043 117.19032022 -0.22290608 C130.20651091 -0.24029654 143.22263072 -0.27182671 156.2387794 -0.30861118 C169.60122473 -0.34605849 182.96363301 -0.36824385 196.32612866 -0.37635398 C204.56706911 -0.38183391 212.80780916 -0.39912221 221.0486879 -0.43166587 C226.70492354 -0.45286059 232.36105604 -0.45918887 238.01732848 -0.45400551 C241.27750114 -0.45145137 244.53725228 -0.4574888 247.79737854 -0.4768219 C251.34084712 -0.4968012 254.88346685 -0.49190929 258.42695618 -0.48101807 C259.95472835 -0.49849512 259.95472835 -0.49849512 261.51336461 -0.51632524 C271.4169762 -0.43437098 279.67494929 2.27128503 287.24609375 8.73046875 C292.03303057 14.92470103 293.68129624 21.28457277 293.5 29 C293.48404785 30.27218384 293.48404785 30.27218384 293.46777344 31.57006836 C293.03261342 46.84060453 289.75910245 61.96160893 286.50097656 76.84155273 C283.80983628 89.25463402 281.96121341 101.83794155 280 114.3828125 C278.35081423 124.90089917 276.60376555 135.36101751 274.4362793 145.78564453 C273.05049612 152.5209229 271.94983515 159.28457983 270.95092773 166.08740234 C270.09861421 171.80277159 270.09861421 171.80277159 269 174 C268.67531248 176.03667627 268.3905534 178.07977297 268.125 180.125 C267.31502524 186.02281624 266.3064331 191.8467291 265.17407227 197.69287109 C264.18497625 202.86272658 263.3534985 208.04651255 262.5625 213.25 C261.43750189 220.60117813 260.05695168 227.87160791 258.55322266 235.15380859 C256.9736448 242.90169048 255.69654512 250.68982151 254.43212891 258.49438477 C253.57256191 263.74470142 252.62889702 268.93745879 251.4375 274.125 C249.83578707 281.16731392 248.95228686 288.28742091 248.08959961 295.45166016 C247.91956421 296.80783447 247.91956421 296.80783447 247.74609375 298.19140625 C247.64997803 298.99779541 247.5538623 299.80418457 247.45483398 300.63500977 C247 303 247 303 245 308 C209.03 308 173.06 308 136 308 C137.13504823 295.51446945 137.13504823 295.51446945 137.9375 290.8125 C138.09089844 289.89082031 138.24429687 288.96914063 138.40234375 288.01953125 C138.83628596 285.82713041 139.35274567 283.65056018 139.91796875 281.48828125 C141.43814365 275.52245812 142.35857954 269.4425295 143.375 263.375 C144.90376835 254.36420625 146.46188666 245.36198978 148.125 236.375 C149.35372672 229.72171721 150.48094721 223.06352843 151.5 216.375 C152.50952514 209.75073151 153.71999062 203.18975337 155.0625 196.625 C160.13813804 175.93680074 160.13813804 175.93680074 155 156 C149.41676698 150.64988735 144.90731199 148.88161473 137.18537903 148.84178162 C136.14022826 148.83437465 136.14022826 148.83437465 135.07396334 148.82681805 C132.73396301 148.81143239 130.39399014 148.80307955 128.05395508 148.79467773 C126.37865456 148.78510005 124.70335646 148.77509003 123.02806091 148.76467896 C118.47468025 148.73761196 113.9212892 148.71661211 109.36787248 148.69667697 C104.61125175 148.67482849 99.8546631 148.64743424 95.09806824 148.62062073 C86.0883636 148.57067844 77.07864118 148.5257453 68.06890172 148.48259836 C57.81265788 148.43323912 47.55644621 148.37831612 37.30023348 148.32291877 C16.20018563 148.20907514 -4.89989294 148.10224128 -26 148 C-25.68812036 145.43741559 -25.37399971 142.87513903 -25.05859375 140.31298828 C-24.92729065 139.23124077 -24.92729065 139.23124077 -24.79333496 138.12763977 C-24.23247745 133.58913029 -23.51967319 129.1289364 -22.5625 124.65527344 C-21.84358994 121.26166851 -21.2023429 117.85448828 -20.5625 114.4453125 C-20.43568848 113.77119324 -20.30887695 113.09707397 -20.17822266 112.40252686 C-19.91700032 111.01271424 -19.65609966 109.62284113 -19.39550781 108.23291016 C-19.00196862 106.13549202 -18.60649402 104.03844474 -18.2109375 101.94140625 C-16.713093 93.97574637 -15.29215329 86.00194287 -14 78 C-10.25556125 54.82389487 -10.25556125 54.82389487 -8.0625 45 C-5.75645742 34.64659996 -4.23596974 24.15997505 -2.66235352 13.67578125 C-2.5076358 12.65230591 -2.5076358 12.65230591 -2.34979248 11.6081543 C-2.06681853 9.73136525 -1.7878066 7.85398008 -1.5090332 5.9765625 C-1 3 -1 3 0 0 Z " fill="#FFFFFF" transform="translate(984,98)"/>
<path d="M0 0 C5.22866463 -0.04984062 10.45718765 -0.08592606 15.68603516 -0.10986328 C17.46079928 -0.11985378 19.23554723 -0.13345081 21.01025391 -0.15087891 C46.79797193 -0.39758189 46.79797193 -0.39758189 55 6 C58.74476338 11.53380463 60.0681187 17.42611482 59 24 C57.60671068 29.51544707 55.96523786 33.73921054 51.25 37.125 C49.64125 38.053125 49.64125 38.053125 48 39 C48.78375 39.721875 49.5675 40.44375 50.375 41.1875 C53.35950431 44.38518319 54.93060108 46.62461368 55.06103516 51.08911133 C54.97372228 53.50434694 54.81515562 55.90322823 54.625 58.3125 C54.56828125 59.14845703 54.5115625 59.98441406 54.453125 60.84570312 C54.31240504 62.89786928 54.1576007 64.94906118 54 67 C56.35566594 64.05552526 58.02965517 61.11023042 59.63671875 57.703125 C60.12785156 56.66929688 60.61898437 55.63546875 61.125 54.5703125 C61.640625 53.47460938 62.15625 52.37890625 62.6875 51.25 C63.76326042 48.98387031 64.84008404 46.71824504 65.91796875 44.453125 C66.44310059 43.34904297 66.96823242 42.24496094 67.50927734 41.10742188 C69.45741959 37.04650564 71.46624839 33.01856268 73.5 29 C75.45069469 25.14279011 77.35747918 21.28612594 79.0625 17.3125 C81.63105923 11.33856586 84.88100651 5.69816118 88 0 C95.59 0 103.18 0 111 0 C111.40992188 2.12179688 111.81984375 4.24359375 112.2421875 6.4296875 C112.645919 8.51824408 113.04976107 10.60677926 113.45361328 12.6953125 C113.73107224 14.13051159 114.00841891 15.56573239 114.28564453 17.00097656 C116.82894158 30.16735914 119.46780457 43.30783042 122.23242188 56.4296875 C122.44576172 57.44804688 122.65910156 58.46640625 122.87890625 59.515625 C123.0704126 60.42602539 123.26191895 61.33642578 123.45922852 62.27441406 C124.03402044 65.17146917 124.51444337 68.08666019 125 71 C117.41 71 109.82 71 102 71 C101.505 67.535 101.505 67.535 101 64 C94.07 63.67 87.14 63.34 80 63 C79.505 64.98 79.505 64.98 79 67 C78.505 68.98 78.505 68.98 78 71 C62.49 71 46.98 71 31 71 C30.21327306 67.85309225 29.87995544 65.8062379 29.90234375 62.671875 C29.90556641 61.87265625 29.90878906 61.0734375 29.91210938 60.25 C29.92467773 59.0125 29.92467773 59.0125 29.9375 57.75 C29.94201172 56.90953125 29.94652344 56.0690625 29.95117188 55.203125 C29.96292039 53.13538599 29.98085478 51.06768376 30 49 C25.24350993 46.32509219 25.24350993 46.32509219 16 46 C15.01 54.25 14.02 62.5 13 71 C5.08 71 -2.84 71 -11 71 C-10.34 68.03 -9.68 65.06 -9 62 C-8.71220114 60.00394577 -8.45898259 58.00233511 -8.25390625 55.99609375 C-8.14046875 54.93406738 -8.02703125 53.87204102 -7.91015625 52.77783203 C-7.79542969 51.67552246 -7.68070312 50.57321289 -7.5625 49.4375 C-6.62250072 40.85161376 -5.47495448 32.44302904 -3.76171875 23.9765625 C-2.18383621 16.04383536 -1.16412518 8.00152652 0 0 Z M20 18 C19.34 21.96 18.68 25.92 18 30 C20.24973447 30.054138 22.49984383 30.09285491 24.75 30.125 C26.62945312 30.15980469 26.62945312 30.15980469 28.546875 30.1953125 C31.73500224 30.01498856 33.47678392 29.91246206 36 28 C37.18701 23.40249903 37.18701 23.40249903 36 19 C32.57767028 17.85922343 29.91326783 17.90184883 26.3125 17.9375 C25.13300781 17.94652344 23.95351563 17.95554687 22.73828125 17.96484375 C21.38283203 17.98224609 21.38283203 17.98224609 20 18 Z M95 26 C94.20788071 27.89564426 93.41632424 29.79152371 92.625 31.6875 C92.18414062 32.74324219 91.74328125 33.79898438 91.2890625 34.88671875 C90.17236484 37.5837128 89.07803295 40.28738863 88 43 C87.01 45.475 87.01 45.475 86 48 C90.29 48 94.58 48 99 48 C98.7627371 45.62737098 98.52453402 43.25483169 98.28125 40.8828125 C98.09595087 38.98349646 97.92882157 37.0823067 97.78125 35.1796875 C97.7090625 34.29539062 97.636875 33.41109375 97.5625 32.5 C97.50191406 31.6853125 97.44132812 30.870625 97.37890625 30.03125 C97.15707043 27.78010349 97.15707043 27.78010349 95 26 Z " fill="#FFFFFF" transform="translate(380,1)"/>
<path d="M0 0 C9.24 0 18.48 0 28 0 C30.25 13.5 30.25 13.5 30.8515625 19.078125 C30.98046875 20.25761719 31.109375 21.43710937 31.2421875 22.65234375 C31.36851562 23.83957031 31.49484375 25.02679687 31.625 26.25 C31.82609375 28.10044922 31.82609375 28.10044922 32.03125 29.98828125 C32.35722104 32.9918715 32.68008622 35.99575961 33 39 C33.32613281 38.19175781 33.65226563 37.38351563 33.98828125 36.55078125 C34.42527344 35.48214844 34.86226562 34.41351563 35.3125 33.3125 C35.74175781 32.25675781 36.17101562 31.20101562 36.61328125 30.11328125 C37.89172823 27.24307774 39.36795001 24.67790928 41 22 C42.26592955 18.58199021 43.39283979 15.13282773 44.5234375 11.66796875 C45.01070312 10.45753906 45.49796875 9.24710938 46 8 C46.38369751 6.90389404 46.38369751 6.90389404 46.77514648 5.78564453 C47.92613709 3.2349838 48.82096459 1.77656846 51 0 C55.79797796 -1.00177137 60.43822194 -0.75257843 65.3125 -0.5 C66.62541016 -0.46390625 67.93832031 -0.4278125 69.29101562 -0.390625 C72.53030187 -0.29639122 75.76366962 -0.16494088 79 0 C78.05907047 6.61229124 77.11694756 13.22441172 76.17407227 19.83642578 C75.85480006 22.07629734 75.53578112 24.31620501 75.21704102 26.55615234 C74.15220309 34.03852528 73.07984947 41.51977889 72 49 C71.85532288 50.00587158 71.71064575 51.01174316 71.56158447 52.0480957 C71.15563031 54.86077397 70.74473945 57.67268083 70.33203125 60.484375 C70.2115593 61.3222052 70.09108734 62.1600354 69.96696472 63.02325439 C69.11506095 68.76987811 69.11506095 68.76987811 68 71 C61.4 71 54.8 71 48 71 C48.55348485 62.14424235 49.91557552 53.62991525 51.62695312 44.9453125 C52.51505575 40.31415954 53.25057695 35.65523967 54 31 C53.52820313 32.37671875 53.52820313 32.37671875 53.046875 33.78125 C50.97692319 39.71677446 48.92374816 45.51681068 45.96484375 51.078125 C44.83031054 53.33800492 43.91745196 55.64389768 43 58 C41.24989276 62.48638603 39.21624311 66.72581685 37 71 C31.72 71 26.44 71 21 71 C19.21333056 60.708784 17.60365501 50.44284431 16.4296875 40.0625 C16.17871931 37.09193918 16.17871931 37.09193918 15 35 C13.68 46.88 12.36 58.76 11 71 C4.07 71 -2.86 71 -10 71 C-10 60.88768313 -10 60.88768313 -9.23046875 56.6796875 C-8.9828479 55.27577759 -8.9828479 55.27577759 -8.73022461 53.84350586 C-8.55112549 52.86389893 -8.37202637 51.88429199 -8.1875 50.875 C-6.73096624 42.58054549 -5.46597678 34.29579262 -4.4375 25.9375 C-3.35140539 17.17499595 -1.8683085 8.62980594 0 0 Z " fill="#FFFFFF" transform="translate(664,1)"/>
<path d="M0 0 C6.93 0 13.86 0 21 0 C25.6293634 9.06173262 29.95390287 18.20036704 34.06616211 27.50878906 C34.43362549 28.33733398 34.80108887 29.16587891 35.1796875 30.01953125 C35.50694824 30.76307861 35.83420898 31.50662598 36.17138672 32.27270508 C36.87617203 33.98673962 36.87617203 33.98673962 38 35 C39.7720872 25.34803173 41.38121113 15.71884914 42.5703125 5.9765625 C43 3 43 3 44 0 C51.26 0 58.52 0 66 0 C65.18236508 5.45861303 64.36456966 10.91720157 63.54638672 16.37573242 C63.26895235 18.22695582 62.99160629 20.07819246 62.71435547 21.92944336 C62.31241547 24.61315467 61.91018155 27.29682173 61.5078125 29.98046875 C61.37678635 30.85494156 61.24576019 31.72941437 61.11076355 32.63038635 C60.37856171 37.50851128 59.63177076 42.38402856 58.87109375 47.2578125 C58.02167624 52.75026999 57.32733804 58.24983731 56.70117188 63.77148438 C56.10533301 68.78933398 56.10533301 68.78933398 55 71 C47.74 71 40.48 71 33 71 C31.68 68.03 30.36 65.06 29 62 C28.21103412 60.26959938 27.41980955 58.5402243 26.625 56.8125 C23.63586207 50.25688285 20.81697739 43.63102924 18 37 C17.67 37 17.34 37 17 37 C16.54027968 39.87478439 16.08196384 42.74977695 15.625 45.625 C15.48852051 46.48206543 15.35204102 47.33913086 15.21142578 48.22216797 C14.19650664 54.64042579 13.27778995 61.0652097 12.4296875 67.5078125 C12 70 12 70 11 71 C9.43827255 71.08685603 7.87270656 71.10702219 6.30859375 71.09765625 C5.36435547 71.09443359 4.42011719 71.09121094 3.44726562 71.08789062 C2.45404297 71.07951172 1.46082031 71.07113281 0.4375 71.0625 C-0.55958984 71.05798828 -1.55667969 71.05347656 -2.58398438 71.04882812 C-5.05604849 71.03700007 -7.52799518 71.02051849 -10 71 C-9.57249483 61.95729403 -8.27359566 53.23004172 -6.73242188 44.3203125 C-5.08763657 34.73457446 -3.65198169 25.12359568 -2.25 15.5 C-2.13740845 14.72814362 -2.02481689 13.95628723 -1.90881348 13.16104126 C-1.2694017 8.77447292 -0.63418782 4.38733216 0 0 Z " fill="#FFFFFF" transform="translate(822,1)"/>
<path d="M0 0 C0.9583374 0.00523682 1.9166748 0.01047363 2.90405273 0.01586914 C4.45576172 0.02070313 4.45576172 0.02070313 6.03881836 0.02563477 C7.12743164 0.03401367 8.21604492 0.04239258 9.33764648 0.05102539 C10.97636719 0.05779297 10.97636719 0.05779297 12.64819336 0.06469727 C15.3572008 0.07652699 18.06618028 0.09446308 20.77514648 0.11352539 C19.45514648 7.04352539 18.13514648 13.97352539 16.77514648 21.11352539 C17.43514648 21.11352539 18.09514648 21.11352539 18.77514648 21.11352539 C18.77514648 20.45352539 18.77514648 19.79352539 18.77514648 19.11352539 C19.43514648 19.11352539 20.09514648 19.11352539 20.77514648 19.11352539 C21.05302002 18.52925781 21.33089355 17.94499023 21.6171875 17.34301758 C25.22944698 10.38810433 30.76771762 3.74183311 37.77514648 0.11352539 C46.63303965 -1.71767368 55.84254327 -0.83550895 64.77514648 0.11352539 C64.77514648 0.77352539 64.77514648 1.43352539 64.77514648 2.11352539 C64.11514648 2.11352539 63.45514648 2.11352539 62.77514648 2.11352539 C62.77514648 2.77352539 62.77514648 3.43352539 62.77514648 4.11352539 C61.37670898 5.49072266 61.37670898 5.49072266 59.40014648 7.11743164 C54.25081251 11.49595482 49.52832717 16.25038592 44.77514648 21.05102539 C43.9050293 21.9256543 43.03491211 22.8002832 42.13842773 23.70141602 C40.01501099 25.83649989 37.89398271 27.97389745 35.77514648 30.11352539 C36.24823242 30.9759082 36.72131836 31.83829102 37.20874023 32.72680664 C41.66040615 40.91951183 45.79985709 49.21489824 49.71630859 57.67724609 C51.21431667 60.89879436 52.70381482 63.99490289 54.53686523 67.04321289 C55.77514648 69.11352539 55.77514648 69.11352539 55.77514648 71.11352539 C47.52514648 71.11352539 39.27514648 71.11352539 30.77514648 71.11352539 C24.96480166 59.49283574 24.96480166 59.49283574 22.46264648 54.11352539 C21.95088867 53.02040039 21.43913086 51.92727539 20.91186523 50.80102539 C19.77514648 48.11352539 19.77514648 48.11352539 19.77514648 46.11352539 C18.82639648 46.93852539 17.87764648 47.76352539 16.90014648 48.61352539 C14.02514648 51.11352539 14.02514648 51.11352539 11.77514648 51.11352539 C11.72616211 52.13833008 11.67717773 53.16313477 11.62670898 54.21899414 C11.55163578 55.57969599 11.47608994 56.94037183 11.40014648 58.30102539 C11.36920898 58.97456055 11.33827148 59.6480957 11.30639648 60.34204102 C11.06057749 64.54144878 10.38464151 67.08978782 8.77514648 71.11352539 C1.51514648 71.11352539 -5.74485352 71.11352539 -13.22485352 71.11352539 C-11.78547163 57.49391947 -10.17550173 43.97517332 -7.71289062 30.49951172 C-6.32189778 22.85808348 -5.19090985 15.19716326 -4.17602539 7.49707031 C-3.18500516 0.16251809 -3.18500516 0.16251809 0 0 Z " fill="#FFFFFF" transform="translate(596.224853515625,0.886474609375)"/>
<path d="M0 0 C6.24604 4.45463274 11.73019532 10.70346321 13.04296875 18.45703125 C13.12023814 21.1299084 13.08750974 23.78178809 13.04296875 26.45703125 C9.56381934 26.48590939 6.08470044 26.50378812 2.60546875 26.51953125 C1.11563477 26.53209961 1.11563477 26.53209961 -0.40429688 26.54492188 C-1.8206543 26.54975586 -1.8206543 26.54975586 -3.265625 26.5546875 C-4.57744751 26.56254272 -4.57744751 26.56254272 -5.91577148 26.57055664 C-7.95703125 26.45703125 -7.95703125 26.45703125 -8.95703125 25.45703125 C-8.99783908 23.45744761 -8.99957481 21.45657871 -8.95703125 19.45703125 C-9.61703125 19.45703125 -10.27703125 19.45703125 -10.95703125 19.45703125 C-11.32828125 18.96203125 -11.69953125 18.46703125 -12.08203125 17.95703125 C-14.60788861 15.93634536 -16.80976023 16.03896855 -19.96484375 16.171875 C-23.99753807 16.74910379 -26.26246946 18.80215871 -29.14453125 21.51953125 C-34.26310346 29.81514828 -33.50053539 40.19600639 -31.95703125 49.45703125 C-31.29703125 49.45703125 -30.63703125 49.45703125 -29.95703125 49.45703125 C-29.95703125 50.11703125 -29.95703125 50.77703125 -29.95703125 51.45703125 C-22.16216887 52.0768616 -22.16216887 52.0768616 -14.89453125 49.83203125 C-12.47874742 47.04761649 -12.47874742 47.04761649 -9.95703125 41.45703125 C-2.69703125 41.45703125 4.56296875 41.45703125 12.04296875 41.45703125 C11.0539902 48.6496025 10.01853525 54.89141359 5.04296875 60.45703125 C4.38296875 60.45703125 3.72296875 60.45703125 3.04296875 60.45703125 C2.83414063 61.05128906 2.6253125 61.64554687 2.41015625 62.2578125 C0.52151923 65.29582005 -1.62520646 66.11952533 -4.83203125 67.64453125 C-5.88132812 68.15371094 -6.930625 68.66289063 -8.01171875 69.1875 C-16.65012295 72.91095009 -27.95723396 72.83063817 -36.89453125 69.95703125 C-44.71056708 66.61402797 -50.77189179 61.17435182 -54.30078125 53.4140625 C-57.75428866 43.11521005 -57.70525441 28.26672841 -52.95703125 18.45703125 C-50.83707783 14.63424487 -48.66806982 10.89319098 -45.95703125 7.45703125 C-45.29703125 7.45703125 -44.63703125 7.45703125 -43.95703125 7.45703125 C-43.95703125 6.79703125 -43.95703125 6.13703125 -43.95703125 5.45703125 C-41.47265625 3.765625 -41.47265625 3.765625 -38.20703125 1.89453125 C-37.1396875 1.27449219 -36.07234375 0.65445312 -34.97265625 0.015625 C-25.68000793 -4.78718158 -9.29120601 -4.65382531 0 0 Z " fill="#FFFFFF" transform="translate(566.95703125,2.54296875)"/>
<path d="M0 0 C0.9583374 0.00523682 1.9166748 0.01047363 2.90405273 0.01586914 C4.45576172 0.02070313 4.45576172 0.02070313 6.03881836 0.02563477 C7.12743164 0.03401367 8.21604492 0.04239258 9.33764648 0.05102539 C10.97636719 0.05779297 10.97636719 0.05779297 12.64819336 0.06469727 C15.35723144 0.07652713 18.06616248 0.09300996 20.77514648 0.11352539 C22.36551703 7.13460826 23.81150674 14.17744776 25.21264648 21.23852539 C25.43291504 22.34365479 25.65318359 23.44878418 25.88012695 24.58740234 C26.80993009 29.25315584 27.73684422 33.91947799 28.66186523 38.58618164 C28.90549805 39.81208008 29.14913086 41.03797852 29.40014648 42.30102539 C29.62573242 43.44055664 29.85131836 44.58008789 30.08374023 45.75415039 C30.57150332 48.12407273 31.0872093 50.48832747 31.62280273 52.84790039 C31.89995117 54.06993164 32.17709961 55.29196289 32.46264648 56.55102539 C32.71401367 57.62223633 32.96538086 58.69344727 33.22436523 59.79711914 C33.77514648 63.11352539 33.77514648 63.11352539 33.77514648 71.11352539 C26.84514648 71.11352539 19.91514648 71.11352539 12.77514648 71.11352539 C12.28014648 67.15352539 12.28014648 67.15352539 11.77514648 63.11352539 C4.51514648 63.11352539 -2.74485352 63.11352539 -10.22485352 63.11352539 C-10.55485352 64.76352539 -10.88485352 66.41352539 -11.22485352 68.11352539 C-11.88485352 69.10352539 -12.54485352 70.09352539 -13.22485352 71.11352539 C-15.56323242 71.45410156 -15.56323242 71.45410156 -18.45141602 71.40649414 C-19.48266602 71.39682617 -20.51391602 71.3871582 -21.57641602 71.37719727 C-23.19676758 71.33949219 -23.19676758 71.33949219 -24.84985352 71.30102539 C-25.93782227 71.28749023 -27.02579102 71.27395508 -28.14672852 71.26000977 C-30.8399276 71.22457294 -33.53214726 71.1751687 -36.22485352 71.11352539 C-34.7989149 65.15485454 -32.34594113 60.22067469 -29.41235352 54.86352539 C-26.23260783 48.94626154 -23.18874025 43.0442271 -20.48657227 36.89086914 C-18.57769533 32.68897594 -16.47368385 28.58832898 -14.39208984 24.4699707 C-11.393979 18.51195954 -8.54880803 12.48773828 -5.75097656 6.43334961 C-2.82945008 0.14437554 -2.82945008 0.14437554 0 0 Z M4.77514648 27.11352539 C-0.83938496 37.14422121 -0.83938496 37.14422121 -3.22485352 48.11352539 C0.73514648 48.11352539 4.69514648 48.11352539 8.77514648 48.11352539 C8.66028224 45.73764915 8.53356493 43.36337368 8.40014648 40.98852539 C8.36920898 40.32336914 8.33827148 39.65821289 8.30639648 38.97290039 C8.05595015 34.71531277 7.29986451 31.09266756 5.77514648 27.11352539 C5.44514648 27.11352539 5.11514648 27.11352539 4.77514648 27.11352539 Z " fill="#FFFFFF" transform="translate(954.224853515625,0.886474609375)"/>
<path d="M0 0 C7.59 0 15.18 0 23 0 C26.36905576 12.35320445 26.36905576 12.35320445 27.24609375 17.8203125 C27.44162842 19.00681396 27.63716309 20.19331543 27.83862305 21.41577148 C28.03625244 22.63981689 28.23388184 23.8638623 28.4375 25.125 C29.79425554 33.29177311 31.17829711 41.40356008 33.1875 49.4375 C34.97921787 56.61887931 36.07192347 63.65272747 37 71 C29.74 71 22.48 71 15 71 C14.505 67.04 14.505 67.04 14 63 C7.07 63 0.14 63 -7 63 C-7.66 65.31 -8.32 67.62 -9 70 C-10 71 -10 71 -12.31665039 71.11352539 C-13.31688232 71.10828857 -14.31711426 71.10305176 -15.34765625 71.09765625 C-16.42724609 71.09443359 -17.50683594 71.09121094 -18.61914062 71.08789062 C-19.75544922 71.07951172 -20.89175781 71.07113281 -22.0625 71.0625 C-23.20267578 71.05798828 -24.34285156 71.05347656 -25.51757812 71.04882812 C-28.34510351 71.03699747 -31.1725264 71.0205141 -34 71 C-31.96194152 65.21139301 -29.5129639 59.93638332 -26.5625 54.5625 C-23.90528 49.70063878 -21.45046098 44.83601039 -19.23901367 39.75610352 C-16.27426099 33.16120833 -13.03918573 26.6883738 -9.875 20.1875 C-9.13919121 18.67259001 -8.40351311 17.15761653 -7.66796875 15.64257812 C-2.43613135 4.87226269 -2.43613135 4.87226269 0 0 Z M8 25 C7.68546875 25.76183594 7.3709375 26.52367188 7.046875 27.30859375 C4.68679728 33.00263667 2.29081644 38.66487834 -0.30078125 44.2578125 C-1.12415557 45.99647101 -1.12415557 45.99647101 -1 48 C3.29 48 7.58 48 12 48 C11.01 40.41 10.02 32.82 9 25 C8.67 25 8.34 25 8 25 Z " fill="#FFFFFF" transform="translate(771,1)"/>
<path d="M0 0 C20.13 0 40.26 0 61 0 C60 13 60 13 59 19 C52.73 19 46.46 19 40 19 C39.7525 21.475 39.505 23.95 39.25 26.5 C38.32594112 35.22877706 36.93218558 43.85548111 35.40917969 52.49804688 C35.24192383 53.45775391 35.07466797 54.41746094 34.90234375 55.40625 C34.75273193 56.24478516 34.60312012 57.08332031 34.44897461 57.94726562 C33.81199481 62.27831262 33.43559123 66.64408774 33 71 C25.41 71 17.82 71 10 71 C10 60.86472425 10 60.86472425 10.40234375 57.5078125 C10.48806641 56.78335938 10.57378906 56.05890625 10.66210938 55.3125 C10.75298828 54.590625 10.84386719 53.86875 10.9375 53.125 C11.06801758 52.00738281 11.06801758 52.00738281 11.20117188 50.8671875 C11.57658188 47.77492139 12.01226047 44.9632186 13 42 C13.15223167 40.35646178 13.27339558 38.70994314 13.375 37.0625 C13.8845412 30.81435545 15.36436508 25.04473776 17 19 C10.4 19 3.8 19 -3 19 C-2.02965237 12.66039547 -1.05437146 6.32622877 0 0 Z " fill="#FFFFFF" transform="translate(313,1)"/>
<path d="M0 0 C7.59 0 15.18 0 23 0 C22.57954782 6.64314444 21.86721048 13.08779825 20.625 19.625 C19.21956649 27.07060539 18.31917493 34.53149778 17.5 42.0625 C16.4336432 51.83873465 14.9829389 61.36858251 13 71 C5.41 71 -2.18 71 -10 71 C-10 64.27354927 -9.92248299 59.40207935 -8.6875 53.0625 C-8.4086763 51.57709995 -8.13138839 50.09141098 -7.85546875 48.60546875 C-7.71286621 47.84669434 -7.57026367 47.08791992 -7.42333984 46.30615234 C-6.72551936 42.50476118 -6.1053806 38.69207132 -5.5 34.875 C-5.31691284 33.72281982 -5.31691284 33.72281982 -5.13012695 32.54736328 C-3.93326104 24.8481799 -2.94806703 17.1217979 -2.00195312 9.38818359 C-1.88529297 8.45441895 -1.76863281 7.5206543 -1.6484375 6.55859375 C-1.54708496 5.72642334 -1.44573242 4.89425293 -1.34130859 4.03686523 C-1 2 -1 2 0 0 Z " fill="#FFFFFF" transform="translate(900,1)"/>
<path d="M0 0 C3.4696382 3.10052776 4.83387437 4.94787101 5.5625 9.5625 C4.91429589 13.52374737 3.81200626 15.18799374 1 18 C-2.21694364 19.60847182 -5.52137222 19.61309149 -9 19 C-11.69105198 16.82425584 -13.45532928 15.08934144 -15 12 C-15.25225938 8.13202291 -15.39446566 5.1563411 -13 2 C-8.42896824 -1.08278886 -5.28383778 -1.63318622 0 0 Z M-6 2 C-6.66 2.66 -7.32 3.32 -8 4 C-5.69 4 -3.38 4 -1 4 C-3.67642489 1.81509993 -3.67642489 1.81509993 -6 2 Z M-10 4 C-11.20561184 4.98267859 -11.20561184 4.98267859 -11.09765625 6.84765625 C-11.08605469 7.57855469 -11.07445312 8.30945313 -11.0625 9.0625 C-11.041875 10.361875 -11.02125 11.66125 -11 13 C-10.01 13.495 -10.01 13.495 -9 14 C-9 10.7 -9 7.4 -9 4 C-9.33 4 -9.66 4 -10 4 Z M-1 4 C0 6 0 6 0 6 Z M0 6 C-0.33 7.98 -0.66 9.96 -1 12 C-0.01 12.495 -0.01 12.495 1 13 C1 10.69 1 8.38 1 6 C0.67 6 0.34 6 0 6 Z M-6 11 C-6 12.32 -6 13.64 -6 15 C-6.99 15.495 -6.99 15.495 -8 16 C-6.02 16 -4.04 16 -2 16 C-2.66 14.35 -3.32 12.7 -4 11 C-4.66 11 -5.32 11 -6 11 Z " fill="#FFFFFF" transform="translate(1001,2)"/>
</svg>
